<?xml version="1.0" encoding="UTF-8"?>
<svg version="1.1" xmlns="http://www.w3.org/2000/svg" width="1024" height="1024">
<path d="M0 0 C337.92 0 675.84 0 1024 0 C1024 337.92 1024 675.84 1024 1024 C686.08 1024 348.16 1024 0 1024 C0 686.08 0 348.16 0 0 Z " fill="#FE8A86" transform="translate(0,0)"/>
<path d="M0 0 C3.0563931 1.14281486 6.21961804 1.88019598 9.37524414 2.70117188 C37.00789759 10.45847013 64.28529501 26.27703311 86.87524414 43.70117188 C88.00144935 44.55546626 89.12775381 45.40962982 90.25415039 46.26367188 C101.01031477 54.49012896 111.55555136 63.33004054 120.25024414 73.76367188 C122.15958671 76.0401957 124.17247188 78.20546026 126.18774414 80.38867188 C141.46250607 97.43777483 153.89045499 117.12956296 163.87524414 137.70117188 C164.33785645 138.6417041 164.80046875 139.58223633 165.27709961 140.55126953 C169.22771627 148.80728818 172.26265721 157.23496062 175.00024414 165.95117188 C175.21690735 166.63525116 175.43357056 167.31933044 175.65679932 168.0241394 C182.06956683 188.30700617 182.06956683 188.30700617 183.87524414 198.70117188 C184.0528125 199.69149414 184.23038086 200.68181641 184.41333008 201.70214844 C191.91416135 245.10071857 189.03811311 289.94188214 174.87524414 331.70117188 C174.56103516 332.63783691 174.24682617 333.57450195 173.9230957 334.53955078 C168.71581876 349.83120093 162.08754446 363.80343288 153.87524414 377.70117188 C153.22338135 378.81443848 153.22338135 378.81443848 152.55834961 379.95019531 C144.0893357 394.30681209 134.23013129 407.50023431 122.87524414 419.70117188 C121.80886127 420.94786102 120.74626423 422.19779983 119.68774414 423.45117188 C110.54983814 433.87343793 100.62884861 443.16993896 89.53051758 451.46044922 C87.94867576 452.64613066 86.38413021 453.85478304 84.82055664 455.06445312 C50.87833371 481.12883917 11.50124732 497.76823936 -30.43725586 505.57617188 C-32.07150513 505.88071289 -32.07150513 505.88071289 -33.73876953 506.19140625 C-46.72235309 508.49111093 -59.51774604 508.88766556 -72.66821289 508.88647461 C-75.35571253 508.88865641 -78.04279738 508.90686263 -80.73022461 508.92578125 C-91.37894317 508.96080771 -101.59486682 508.31624405 -112.12475586 506.70117188 C-113.59017822 506.49802368 -113.59017822 506.49802368 -115.08520508 506.29077148 C-165.82865415 499.1320404 -213.19292228 475.34100571 -250.80053711 440.77929688 C-252.39431952 439.3542679 -254.03774434 437.98343093 -255.71850586 436.66210938 C-257.87116988 434.90782798 -259.5492206 433.2063173 -261.31225586 431.07617188 C-264.02019216 427.89449294 -266.86639216 424.97488048 -269.87475586 422.07617188 C-279.61633542 412.42328651 -287.58193502 401.11219008 -295.12475586 389.70117188 C-295.50422363 389.13301758 -295.88369141 388.56486328 -296.2746582 387.97949219 C-307.45415139 371.1242563 -317.54239869 353.00224155 -323.52172852 333.62451172 C-324.13968562 331.65355379 -324.80250382 329.70311369 -325.48022461 327.75195312 C-331.63265627 309.99410187 -334.74082141 292.13685394 -336.81225586 273.51367188 C-337.00948242 271.78697266 -337.00948242 271.78697266 -337.21069336 270.02539062 C-338.07271706 261.88714534 -338.26427586 253.87999395 -338.12475586 245.70117188 C-338.11871338 244.8166333 -338.1126709 243.93209473 -338.10644531 243.02075195 C-337.79233683 211.88047204 -331.14154026 180.15008051 -319.12475586 151.45117188 C-318.46733398 149.85789062 -318.46733398 149.85789062 -317.79663086 148.23242188 C-317.36866211 147.20632813 -316.94069336 146.18023437 -316.49975586 145.12304688 C-316.11561523 144.20104492 -315.73147461 143.27904297 -315.33569336 142.32910156 C-314.1032761 139.65455734 -312.65468734 137.21448144 -311.12475586 134.70117188 C-310.71225586 133.71117187 -310.29975586 132.72117187 -309.87475586 131.70117188 C-298.7391934 105.38075151 -279.17896018 82.65218132 -259.12475586 62.70117188 C-258.58592773 62.13914062 -258.04709961 61.57710938 -257.49194336 60.99804688 C-252.42957556 55.75014727 -246.85801799 51.19225534 -241.12475586 46.70117188 C-240.52453613 46.2298584 -239.92431641 45.75854492 -239.3059082 45.27294922 C-219.26216748 29.63465036 -196.78020706 17.04433122 -173.12475586 7.70117188 C-172.08963867 7.27578125 -171.05452148 6.85039062 -169.98803711 6.41210938 C-153.52942427 -0.1875312 -136.52015381 -4.08198786 -119.12475586 -7.29882812 C-118.25270508 -7.46688965 -117.3806543 -7.63495117 -116.48217773 -7.80810547 C-80.36996986 -14.53557277 -34.4026331 -13.60355659 0 0 Z " fill="#FE6F68" transform="translate(587.124755859375,260.298828125)"/>
<path d="M0 0 C0.66 0 1.32 0 2 0 C9.94647469 16.30063087 17.81074378 32.63003621 25.41455078 49.09375 C28.75788334 56.33157102 32.13363461 63.55228031 35.5625 70.75 C35.95606689 71.57709473 36.34963379 72.40418945 36.75512695 73.25634766 C39.5836488 79.17885331 42.4926513 85.05670333 45.484375 90.8984375 C45.90203125 91.71570313 46.3196875 92.53296875 46.75 93.375 C47.17796875 94.20773437 47.6059375 95.04046875 48.046875 95.8984375 C49 98 49 98 49 100 C50.13824219 99.95746094 51.27648437 99.91492188 52.44921875 99.87109375 C59.14279071 99.8801689 65.72948981 100.86206037 72.35205078 101.73770142 C76.70821096 102.31274871 81.06697175 102.86732192 85.42578125 103.421875 C86.86445053 103.60524162 86.86445053 103.60524162 88.33218384 103.79231262 C101.68985106 105.4829202 115.06585915 107.02196468 128.44024277 108.57352829 C130.50564578 108.81315502 132.57101837 109.05304243 134.63638306 109.29299927 C142.42398842 110.19764287 150.21184746 111.10007909 158 112 C158.33 113.32 158.66 114.64 159 116 C158.51748779 116.4110498 158.03497559 116.82209961 157.5378418 117.24560547 C152.407477 121.66814189 147.57104114 126.3072617 142.8125 131.125 C142.12736328 131.81464844 141.44222656 132.50429688 140.73632812 133.21484375 C138.02608284 135.94334863 135.31819438 138.67286462 132.63671875 141.4296875 C130.26220676 143.74439697 127.82945776 145.94586394 125.3515625 148.1484375 C119.81383454 153.1034627 114.58975579 158.33400509 109.375 163.625 C102.58389488 170.51452693 95.71713957 177.11372024 88.25 183.265625 C87.13625 184.24789062 87.13625 184.24789062 86 185.25 C84.8553125 186.21679688 84.8553125 186.21679688 83.6875 187.203125 C79.52978936 194.09414542 82.29745248 204.17521639 83.7578125 211.703125 C83.94144348 212.6916748 84.12507446 213.68022461 84.31427002 214.69873047 C84.90848307 217.88432588 85.51660885 221.06708505 86.125 224.25 C86.53941512 226.45915232 86.95298353 228.66846363 87.36572266 230.87792969 C89.86976444 244.2394524 92.4682992 257.58204917 95.09863281 270.91918945 C97.10614609 281.23174784 98.67562569 291.57926526 100 302 C96.25738246 301.41140461 93.43035493 300.35334469 90.12109375 298.5234375 C89.20602051 298.02102539 88.29094727 297.51861328 87.34814453 297.00097656 C85.90737549 296.19611816 85.90737549 296.19611816 84.4375 295.375 C82.95032471 294.55467285 82.95032471 294.55467285 81.43310547 293.71777344 C76.45545582 290.96230339 71.51477156 288.15816289 66.625 285.25 C62.32086295 282.69576175 57.93045665 280.44461552 53.4375 278.25 C46.45928208 274.84081999 39.78058161 271.02355521 33.09228516 267.08056641 C27.28028401 263.67827477 21.37118479 260.58731597 15.30932617 257.65649414 C11.80533322 255.9514723 8.53252193 254.13023881 5.3125 251.9375 C2.28712549 249.73221463 2.28712549 249.73221463 -0.41601562 250.2409668 C-3.02305496 251.00677228 -5.24460613 251.95936138 -7.65625 253.20703125 C-8.96335937 253.88113037 -8.96335937 253.88113037 -10.296875 254.56884766 C-14.71643738 256.90875686 -19.11629544 259.28107733 -23.5 261.6875 C-24.45342285 262.20932861 -25.4068457 262.73115723 -26.38916016 263.26879883 C-37.23601654 269.21261593 -48.05649474 275.20349868 -58.82519531 281.2878418 C-66.06059673 285.37450371 -73.33194914 289.39205707 -80.625 293.375 C-81.56182617 293.88724121 -82.49865234 294.39948242 -83.46386719 294.92724609 C-96.44505839 302 -96.44505839 302 -99 302 C-99.14188461 296.32620984 -98.68468924 291.17222141 -97.609375 285.609375 C-97.39244995 284.4419149 -97.39244995 284.4419149 -97.17114258 283.25086975 C-96.70438295 280.74921696 -96.2273664 278.2496483 -95.75 275.75 C-95.42556924 274.02182934 -95.10167803 272.29355731 -94.77832031 270.56518555 C-93.01984128 261.20020436 -91.19569805 251.85017605 -89.27832031 242.51635742 C-88.04804173 236.45103063 -87.07227199 230.35994199 -86.15014648 224.2409668 C-85.05955646 217.10032299 -83.70103857 210.01935058 -82.26953125 202.93969727 C-82.10453125 202.10623779 -81.93953125 201.27277832 -81.76953125 200.4140625 C-81.62104736 199.6813916 -81.47256348 198.9487207 -81.31958008 198.19384766 C-80.51660408 193.38968792 -80.51660408 193.38968792 -82.34179688 189.07470703 C-82.96119141 188.47513184 -83.58058594 187.87555664 -84.21875 187.2578125 C-84.90453125 186.58363281 -85.5903125 185.90945313 -86.296875 185.21484375 C-87.02390625 184.52519531 -87.7509375 183.83554687 -88.5 183.125 C-89.19609375 182.44308594 -89.8921875 181.76117187 -90.609375 181.05859375 C-94.74668325 177.03621073 -99.00621747 173.21825199 -103.45117188 169.53857422 C-105 168 -105 168 -106 165 C-107.31541455 164.29863932 -108.65171033 163.63587514 -110 163 C-111.73814392 161.50236511 -111.73814392 161.50236511 -113.49584961 159.73120117 C-114.16011459 159.06678513 -114.82437958 158.40236908 -115.5087738 157.71781921 C-116.56984093 156.64126823 -116.56984093 156.64126823 -117.65234375 155.54296875 C-118.7580648 154.43300285 -118.7580648 154.43300285 -119.88612366 153.3006134 C-122.24132151 150.93423199 -124.58948317 148.56100478 -126.9375 146.1875 C-128.51451216 144.60045245 -130.0919811 143.01385864 -131.66992188 141.42773438 C-134.57437923 138.50695693 -137.47617867 135.58359519 -140.37475586 132.65698242 C-141.00010223 132.02649994 -141.62544861 131.39601746 -142.26974487 130.74642944 C-143.35278823 129.65326187 -144.43407175 128.55834476 -145.51272583 127.46084595 C-147.37529337 125.57441853 -149.1656953 123.87908721 -151.3125 122.3125 C-151.869375 121.879375 -152.42625 121.44625 -153 121 C-153 120.34 -153 119.68 -153 119 C-153.66 119 -154.32 119 -155 119 C-158 115.53846154 -158 115.53846154 -158 113 C-155.73604671 111.86802336 -154.05736218 111.69006887 -151.54248047 111.41503906 C-150.60921936 111.3109523 -149.67595825 111.20686554 -148.7144165 111.09962463 C-147.69233093 110.98940475 -146.67024536 110.87918488 -145.6171875 110.765625 C-144.01831696 110.5881498 -144.01831696 110.5881498 -142.387146 110.40708923 C-140.08486587 110.15164633 -137.78240839 109.89779797 -135.47979736 109.64535522 C-129.42829479 108.98165823 -123.37807375 108.30660602 -117.328125 107.62890625 C-116.11222687 107.49273392 -114.89632874 107.35656158 -113.64358521 107.21626282 C-101.03093353 105.79400439 -88.43937474 104.2140692 -75.85498047 102.56152344 C-66.57572917 101.35694867 -57.34609127 100.498081 -48 100 C-47.55321899 98.36514648 -47.55321899 98.36514648 -47.09741211 96.69726562 C-45.97523575 92.91656733 -44.49140854 89.93273537 -42.5625 86.5 C-37.46594136 77.22255969 -32.99773293 67.65857884 -28.47070312 58.09423828 C-26.99690658 54.9934917 -25.50898334 51.89996233 -24.015625 48.80859375 C-18.41029653 37.20105921 -12.9009518 25.56349387 -7.65234375 13.78930664 C-5.44653802 8.89833718 -3.31040538 4.24502414 0 0 Z " fill="#FE8B86" transform="translate(512,354)"/>
</svg>
